<mxfile host="app.diagrams.net" agent="Mozilla/5.0 (X11; Ubuntu; Linux x86_64; rv:129.0) Gecko/20100101 Firefox/129.0" version="24.7.8">
  <diagram name="Page-1" id="mQHIreFq8RXXlqd-AJ-T">
    <mxGraphModel dx="1434" dy="784" grid="0" gridSize="10" guides="1" tooltips="1" connect="1" arrows="1" fold="1" page="1" pageScale="1" pageWidth="850" pageHeight="1100" math="0" shadow="0">
      <root>
        <mxCell id="0" />
        <mxCell id="1" parent="0" />
        <mxCell id="RbNe2Q_SXMNxtXdSHVAu-9" style="edgeStyle=orthogonalEdgeStyle;rounded=0;orthogonalLoop=1;jettySize=auto;html=1;exitX=0.5;exitY=1;exitDx=0;exitDy=0;entryX=0.5;entryY=0;entryDx=0;entryDy=0;" parent="1" source="RbNe2Q_SXMNxtXdSHVAu-1" target="RbNe2Q_SXMNxtXdSHVAu-2" edge="1">
          <mxGeometry relative="1" as="geometry" />
        </mxCell>
        <mxCell id="RbNe2Q_SXMNxtXdSHVAu-10" value="USB" style="edgeLabel;html=1;align=center;verticalAlign=middle;resizable=0;points=[];" parent="RbNe2Q_SXMNxtXdSHVAu-9" vertex="1" connectable="0">
          <mxGeometry x="-0.3016" y="2" relative="1" as="geometry">
            <mxPoint as="offset" />
          </mxGeometry>
        </mxCell>
        <mxCell id="RbNe2Q_SXMNxtXdSHVAu-1" value="Angetube 4K Streaming Webcam" style="whiteSpace=wrap;html=1;" parent="1" vertex="1">
          <mxGeometry x="365" y="31" width="120" height="60" as="geometry" />
        </mxCell>
        <mxCell id="RbNe2Q_SXMNxtXdSHVAu-11" style="edgeStyle=orthogonalEdgeStyle;rounded=0;orthogonalLoop=1;jettySize=auto;html=1;exitX=0.5;exitY=1;exitDx=0;exitDy=0;entryX=0.5;entryY=0;entryDx=0;entryDy=0;" parent="1" source="RbNe2Q_SXMNxtXdSHVAu-2" target="RbNe2Q_SXMNxtXdSHVAu-3" edge="1">
          <mxGeometry relative="1" as="geometry" />
        </mxCell>
        <mxCell id="RbNe2Q_SXMNxtXdSHVAu-12" value="MicroSD Read/Writes" style="edgeLabel;html=1;align=center;verticalAlign=middle;resizable=0;points=[];" parent="RbNe2Q_SXMNxtXdSHVAu-11" vertex="1" connectable="0">
          <mxGeometry x="0.1311" y="2" relative="1" as="geometry">
            <mxPoint x="8" y="16" as="offset" />
          </mxGeometry>
        </mxCell>
        <mxCell id="RbNe2Q_SXMNxtXdSHVAu-13" style="edgeStyle=orthogonalEdgeStyle;rounded=0;orthogonalLoop=1;jettySize=auto;html=1;exitX=0.5;exitY=1;exitDx=0;exitDy=0;entryX=0.5;entryY=0;entryDx=0;entryDy=0;" parent="1" source="RbNe2Q_SXMNxtXdSHVAu-2" target="RbNe2Q_SXMNxtXdSHVAu-8" edge="1">
          <mxGeometry relative="1" as="geometry">
            <Array as="points">
              <mxPoint x="425" y="548" />
              <mxPoint x="679" y="548" />
            </Array>
          </mxGeometry>
        </mxCell>
        <mxCell id="RbNe2Q_SXMNxtXdSHVAu-14" value="RealVNC Connection" style="edgeLabel;html=1;align=center;verticalAlign=middle;resizable=0;points=[];" parent="RbNe2Q_SXMNxtXdSHVAu-13" vertex="1" connectable="0">
          <mxGeometry x="0.2584" relative="1" as="geometry">
            <mxPoint x="-34" y="13" as="offset" />
          </mxGeometry>
        </mxCell>
        <mxCell id="RbNe2Q_SXMNxtXdSHVAu-29" value="GitHub Connection" style="edgeLabel;html=1;align=center;verticalAlign=middle;resizable=0;points=[];" parent="RbNe2Q_SXMNxtXdSHVAu-13" vertex="1" connectable="0">
          <mxGeometry x="0.0681" y="-1" relative="1" as="geometry">
            <mxPoint y="-16" as="offset" />
          </mxGeometry>
        </mxCell>
        <mxCell id="RbNe2Q_SXMNxtXdSHVAu-20" style="edgeStyle=orthogonalEdgeStyle;rounded=0;orthogonalLoop=1;jettySize=auto;html=1;exitX=0.5;exitY=0;exitDx=0;exitDy=0;" parent="1" source="RbNe2Q_SXMNxtXdSHVAu-2" target="RbNe2Q_SXMNxtXdSHVAu-5" edge="1">
          <mxGeometry relative="1" as="geometry" />
        </mxCell>
        <mxCell id="RbNe2Q_SXMNxtXdSHVAu-21" value="Receives raw image data from the webcam" style="edgeLabel;html=1;align=center;verticalAlign=middle;resizable=0;points=[];" parent="RbNe2Q_SXMNxtXdSHVAu-20" vertex="1" connectable="0">
          <mxGeometry x="-0.0489" y="-1" relative="1" as="geometry">
            <mxPoint x="-38" y="-18" as="offset" />
          </mxGeometry>
        </mxCell>
        <mxCell id="RbNe2Q_SXMNxtXdSHVAu-2" value="RASPBERRY PI 4" style="whiteSpace=wrap;html=1;" parent="1" vertex="1">
          <mxGeometry x="161" y="161" width="528" height="336" as="geometry" />
        </mxCell>
        <mxCell id="RbNe2Q_SXMNxtXdSHVAu-3" value="Storage" style="whiteSpace=wrap;html=1;" parent="1" vertex="1">
          <mxGeometry x="88" y="598" width="120" height="60" as="geometry" />
        </mxCell>
        <mxCell id="RbNe2Q_SXMNxtXdSHVAu-24" style="edgeStyle=orthogonalEdgeStyle;rounded=0;orthogonalLoop=1;jettySize=auto;html=1;exitX=0.5;exitY=1;exitDx=0;exitDy=0;entryX=1;entryY=0.5;entryDx=0;entryDy=0;" parent="1" source="RbNe2Q_SXMNxtXdSHVAu-4" target="RbNe2Q_SXMNxtXdSHVAu-7" edge="1">
          <mxGeometry relative="1" as="geometry" />
        </mxCell>
        <mxCell id="RbNe2Q_SXMNxtXdSHVAu-25" value="Outputs V4L2 processed image data to the &lt;strong&gt;Display/Output Module&lt;/strong&gt;" style="edgeLabel;html=1;align=center;verticalAlign=middle;resizable=0;points=[];" parent="RbNe2Q_SXMNxtXdSHVAu-24" vertex="1" connectable="0">
          <mxGeometry x="-0.1238" y="3" relative="1" as="geometry">
            <mxPoint x="-193" y="-6" as="offset" />
          </mxGeometry>
        </mxCell>
        <mxCell id="RbNe2Q_SXMNxtXdSHVAu-4" value="Image Processing Module" style="whiteSpace=wrap;html=1;" parent="1" vertex="1">
          <mxGeometry x="544" y="189" width="120" height="60" as="geometry" />
        </mxCell>
        <mxCell id="RbNe2Q_SXMNxtXdSHVAu-22" style="edgeStyle=orthogonalEdgeStyle;rounded=0;orthogonalLoop=1;jettySize=auto;html=1;exitX=1;exitY=0.5;exitDx=0;exitDy=0;entryX=0;entryY=0.5;entryDx=0;entryDy=0;" parent="1" source="RbNe2Q_SXMNxtXdSHVAu-5" target="RbNe2Q_SXMNxtXdSHVAu-4" edge="1">
          <mxGeometry relative="1" as="geometry" />
        </mxCell>
        <mxCell id="RbNe2Q_SXMNxtXdSHVAu-23" value="&lt;font style=&quot;font-size: 8px;&quot;&gt;Forwards image data to the &lt;strong&gt;Image Processing Module&lt;/strong&gt;&lt;/font&gt;" style="edgeLabel;html=1;align=center;verticalAlign=middle;resizable=0;points=[];" parent="RbNe2Q_SXMNxtXdSHVAu-22" vertex="1" connectable="0">
          <mxGeometry x="0.3091" y="-3" relative="1" as="geometry">
            <mxPoint x="-37" y="-21" as="offset" />
          </mxGeometry>
        </mxCell>
        <mxCell id="RbNe2Q_SXMNxtXdSHVAu-5" value="Image Capture Module" style="whiteSpace=wrap;html=1;" parent="1" vertex="1">
          <mxGeometry x="185" y="189" width="121" height="60" as="geometry" />
        </mxCell>
        <mxCell id="RbNe2Q_SXMNxtXdSHVAu-26" style="edgeStyle=orthogonalEdgeStyle;rounded=0;orthogonalLoop=1;jettySize=auto;html=1;" parent="1" source="RbNe2Q_SXMNxtXdSHVAu-7" target="RbNe2Q_SXMNxtXdSHVAu-2" edge="1">
          <mxGeometry relative="1" as="geometry" />
        </mxCell>
        <mxCell id="RbNe2Q_SXMNxtXdSHVAu-28" value="Interfaces with external connections" style="edgeLabel;html=1;align=center;verticalAlign=middle;resizable=0;points=[];" parent="RbNe2Q_SXMNxtXdSHVAu-26" vertex="1" connectable="0">
          <mxGeometry x="-0.8338" y="2" relative="1" as="geometry">
            <mxPoint x="-157" y="43" as="offset" />
          </mxGeometry>
        </mxCell>
        <mxCell id="RbNe2Q_SXMNxtXdSHVAu-7" value="Display/Output Module" style="whiteSpace=wrap;html=1;" parent="1" vertex="1">
          <mxGeometry x="370" y="419" width="120" height="60" as="geometry" />
        </mxCell>
        <mxCell id="RbNe2Q_SXMNxtXdSHVAu-8" value="Network" style="whiteSpace=wrap;html=1;" parent="1" vertex="1">
          <mxGeometry x="619" y="605" width="120" height="60" as="geometry" />
        </mxCell>
      </root>
    </mxGraphModel>
  </diagram>
</mxfile>
